<?xml version="1.0" encoding="UTF-8" standalone="no"?>
<svg
   xmlns:dc="http://purl.org/dc/elements/1.1/"
   xmlns:cc="http://creativecommons.org/ns#"
   xmlns:rdf="http://www.w3.org/1999/02/22-rdf-syntax-ns#"
   xmlns:svg="http://www.w3.org/2000/svg"
   xmlns="http://www.w3.org/2000/svg"
   xmlns:xlink="http://www.w3.org/1999/xlink"
   xmlns:sodipodi="http://sodipodi.sourceforge.net/DTD/sodipodi-0.dtd"
   xmlns:inkscape="http://www.inkscape.org/namespaces/inkscape"
   viewBox="0 0 833.37 240"
   version="1.1"
   id="svg91"
   sodipodi:docname="logo_black.svg"
   inkscape:version="0.92.3 (2405546, 2018-03-11)">
  <metadata
     id="metadata95">
    <rdf:RDF>
      <cc:Work
         rdf:about="">
        <dc:format>image/svg+xml</dc:format>
        <dc:type
           rdf:resource="http://purl.org/dc/dcmitype/StillImage" />
      </cc:Work>
    </rdf:RDF>
  </metadata>
  <sodipodi:namedview
     pagecolor="#ffffff"
     bordercolor="#666666"
     borderopacity="1"
     objecttolerance="10"
     gridtolerance="10"
     guidetolerance="10"
     inkscape:pageopacity="0"
     inkscape:pageshadow="2"
     inkscape:window-width="1200"
     inkscape:window-height="1892"
     id="namedview93"
     showgrid="false"
     inkscape:zoom="0.89756051"
     inkscape:cx="416.685"
     inkscape:cy="387.39144"
     inkscape:window-x="0"
     inkscape:window-y="0"
     inkscape:window-maximized="1"
     inkscape:current-layer="svg91" />
  <defs
     id="defs53">
    <style
       id="style2">.cls-1{isolation:isolate;}.cls-2{fill:url(#Dégradé_sans_nom_129);}.cls-3{fill:url(#Dégradé_sans_nom_17);}.cls-4{fill:url(#Dégradé_sans_nom_68);}.cls-5{fill:url(#Dégradé_sans_nom_88);}.cls-6{fill:url(#Dégradé_sans_nom_121);}.cls-7{fill:url(#Dégradé_sans_nom_103);}.cls-8{opacity:0.45;mix-blend-mode:multiply;}.cls-9{fill:url(#Dégradé_sans_nom_138);}.cls-10{fill:#1a1a1a;}.cls-11{fill:url(#Dégradé_sans_nom_18);}.cls-12{fill:url(#Dégradé_sans_nom_18-2);}</style>
    <linearGradient
       id="Dégradé_sans_nom_129"
       x1="84.92"
       y1="178.84"
       x2="99.02"
       y2="44.72"
       gradientUnits="userSpaceOnUse">
      <stop
         offset="0"
         stop-color="#fe2400"
         id="stop4" />
      <stop
         offset="0.19"
         stop-color="#fe5003"
         id="stop6" />
      <stop
         offset="0.48"
         stop-color="#fe9108"
         id="stop8" />
      <stop
         offset="0.62"
         stop-color="#feaa0a"
         id="stop10" />
    </linearGradient>
    <linearGradient
       id="Dégradé_sans_nom_17"
       x1="35.65"
       y1="181.53"
       x2="58.72"
       y2="132.06"
       gradientUnits="userSpaceOnUse">
      <stop
         offset="0"
         stop-color="#ff4b00"
         id="stop13" />
      <stop
         offset="1"
         stop-color="#ff5e03"
         id="stop15" />
    </linearGradient>
    <linearGradient
       id="Dégradé_sans_nom_68"
       x1="45.77"
       y1="20.87"
       x2="67.13"
       y2="51.38"
       gradientUnits="userSpaceOnUse">
      <stop
         offset="0.15"
         stop-color="#fd790a"
         id="stop18" />
      <stop
         offset="1"
         stop-color="#fea20e"
         id="stop20" />
    </linearGradient>
    <linearGradient
       id="Dégradé_sans_nom_88"
       x1="64.29"
       y1="36.78"
       x2="142.29"
       y2="78.25"
       gradientUnits="userSpaceOnUse">
      <stop
         offset="0"
         stop-color="#fe5706"
         id="stop23" />
      <stop
         offset="0.82"
         stop-color="#fe9305"
         id="stop25" />
      <stop
         offset="0.99"
         stop-color="#fea408"
         id="stop27" />
    </linearGradient>
    <linearGradient
       id="Dégradé_sans_nom_121"
       x1="148.68"
       y1="85.74"
       x2="179.48"
       y2="50.3"
       gradientUnits="userSpaceOnUse">
      <stop
         offset="0"
         stop-color="#fe6205"
         id="stop30" />
      <stop
         offset="1"
         stop-color="#ffa003"
         id="stop32" />
    </linearGradient>
    <linearGradient
       id="Dégradé_sans_nom_103"
       x1="98.46"
       y1="96.92"
       x2="182.3"
       y2="139.64"
       gradientUnits="userSpaceOnUse">
      <stop
         offset="0"
         stop-color="#ff5a01"
         id="stop35" />
      <stop
         offset="1"
         stop-color="#fe4800"
         id="stop37" />
    </linearGradient>
    <linearGradient
       id="Dégradé_sans_nom_138"
       x1="46.43"
       y1="106.01"
       x2="136.07"
       y2="106.01"
       gradientUnits="userSpaceOnUse">
      <stop
         offset="0"
         stop-color="#fcfff8"
         id="stop40" />
      <stop
         offset="1"
         stop-color="#fff"
         id="stop42" />
    </linearGradient>
    <linearGradient
       id="Dégradé_sans_nom_18"
       x1="814.54"
       y1="55.2"
       x2="766.57"
       y2="162.94"
       gradientUnits="userSpaceOnUse">
      <stop
         offset="0.39"
         stop-color="#fe4f00"
         id="stop45" />
      <stop
         offset="0.79"
         stop-color="#fe8a08"
         id="stop47" />
      <stop
         offset="1"
         stop-color="#fea30c"
         id="stop49" />
    </linearGradient>
    <linearGradient
       id="Dégradé_sans_nom_18-2"
       x1="718.1"
       y1="134.29"
       x2="797.93"
       y2="80.44"
       xlink:href="#Dégradé_sans_nom_18" />
  </defs>
  <title
     id="title55">Fichier 1_logo</title>
  <g
     id="g3861">
    <g
       id="g3853">
      <path
         style="isolation:isolate;fill:#1a1a1a;stroke-width:1.29402113"
         inkscape:connector-curvature="0"
         id="path73"
         d="m 128.51911,100.54963 h 6.43171 a 16.700302,18.490895 0 0 0 6.43171,-1.184616 10.883481,12.050399 0 0 0 4.39028,-3.73086 l 40.73005,-57.188332 a 14.757263,16.339524 0 0 1 5.3618,-5.024404 17.216806,19.062778 0 0 1 7.09579,-1.361627 h 23.6854 l -49.71968,67.931573 a 27.608379,30.568527 0 0 1 -9.08801,8.809726 20.906122,23.14766 0 0 1 6.07507,3.78532 27.054981,29.955795 0 0 1 5.15275,6.38603 l 51.24459,76.50982 h -24.18961 a 15.077003,16.693547 0 0 1 -7.29255,-1.52502 11.412283,12.635899 0 0 1 -4.03365,-4.46613 l -41.76305,-60.34732 a 10.957267,12.132097 0 0 0 -4.48867,-4.28912 18.926189,20.95544 0 0 0 -7.37863,-1.23908 h -8.68219 v 71.88029 H 101.0706 V 32.10064 h 27.46081 z"
         class="cls-10" />
      <path
         style="isolation:isolate;fill:#1a1a1a;stroke-width:1.29402113"
         inkscape:connector-curvature="0"
         id="path75"
         d="m 319.29362,135.12134 a 25.825209,28.594168 0 0 0 -4.08284,-5.44651 26.932004,29.819632 0 0 0 -4.91909,-4.0168 51.15851,56.643685 0 0 0 13.83494,-7.12131 42.636191,47.207609 0 0 0 10.2071,-10.51176 40.75464,45.12432 0 0 0 6.33333,-13.330326 A 46.63295,51.632897 0 0 0 339.64635,60.027611 34.150765,37.812383 0 0 0 329.48843,45.17226 49.350745,54.642093 0 0 0 311.82891,35.504708 93.597938,103.63343 0 0 0 286.0037,32.059791 h -45.00965 v 23.583381 h 27.4608 v 0 H 286.016 q 15.21227,0 22.6032,6.671972 7.39093,6.671973 7.37863,19.062779 a 28.051097,31.058713 0 0 1 -1.83236,11.410434 21.50871,23.814857 0 0 1 -5.55856,8.986733 26.132652,28.934575 0 0 1 -9.49384,5.9367 42.488618,47.044214 0 0 1 -13.52749,2.15137 h -17.11843 v 0 h -27.4608 v 85.7825 h 27.4608 v -63.86031 h 11.73203 a 13.416811,14.855351 0 0 1 6.14886,1.23908 10.920374,12.091248 0 0 1 3.82459,4.1802 l 31.02714,52.17755 q 3.16051,6.10008 10.20711,6.10008 h 24.84139 z"
         class="cls-10" />
      <path
         style="isolation:isolate;fill:#1a1a1a;stroke-width:1.29402113"
         inkscape:connector-curvature="0"
         id="path77"
         d="m 428.81711,132.19384 v 63.28842 H 401.46698 V 132.19384 L 347.67676,32.059791 h 24.18961 a 8.6084031,9.5313892 0 0 1 5.66925,1.919894 14.683476,16.257827 0 0 1 3.51715,4.861009 l 26.9443,54.58763 q 2.34886,4.86101 4.13203,9.150126 1.78317,4.28913 3.222,8.59187 1.32816,-4.28913 3.06214,-8.59187 1.73398,-4.302736 3.98446,-9.150126 l 26.84592,-54.58763 a 13.63817,15.100444 0 0 1 3.36957,-4.629532 8.4362351,9.3407615 0 0 1 5.71844,-2.151371 h 24.288 z"
         class="cls-10" />
      <path
         style="isolation:isolate;fill:#1a1a1a;stroke-width:1.29402113"
         inkscape:connector-curvature="0"
         id="path79"
         d="m 545.69463,32.059791 a 84.288564,93.325917 0 0 1 25.61614,3.839789 49.350745,54.642093 0 0 1 17.86859,10.716004 38.49186,42.618926 0 0 1 10.46536,16.50292 51.367571,56.875161 0 0 1 3.41876,21.023521 52.449771,58.073393 0 0 1 -3.57863,21.786025 40.791533,45.165169 0 0 1 -10.71131,16.93864 49.842654,55.186744 0 0 1 -17.93008,11.13811 79.935172,88.505757 0 0 1 -25.16113,3.94872 h -20.5003 v 57.52874 h -27.4608 V 32.087024 Z m 0,82.160569 a 41.332633,45.764285 0 0 0 13.17085,-2.0969 24.952071,27.627413 0 0 0 9.33397,-5.99116 21.902237,24.250578 0 0 0 5.55857,-9.531386 32.834909,36.355442 0 0 0 1.83236,-12.486121 29.797373,32.992223 0 0 0 -1.83236,-11.873388 21.188969,23.460834 0 0 0 -5.50938,-9.041203 24.595438,27.232541 0 0 0 -9.28478,-5.691601 43.964345,48.678167 0 0 0 -13.26923,-1.97436 h -20.5126 v 58.658889 z"
         class="cls-10" />
      <path
         style="isolation:isolate;fill:#1a1a1a;stroke-width:1.29402113"
         inkscape:connector-curvature="0"
         id="path81"
         d="M 727.17206,57.045647 H 682.67892 V 195.48226 H 655.21811 V 57.045647 H 610.71267 V 32.059791 h 116.47169 z"
         class="cls-10" />
    </g>
  </g>
</svg>
